<svg xmlns="http://www.w3.org/2000/svg" xmlns:xlink="http://www.w3.org/1999/xlink" width="30" zoomAndPan="magnify" viewBox="0 0 22.5 32.999998" height="44" preserveAspectRatio="xMidYMid meet" version="1.0"><defs><clipPath id="e225254942"><path d="M 0.105469 4.933594 L 21.382812 4.933594 L 21.382812 26.210938 L 0.105469 26.210938 Z M 0.105469 4.933594 " clip-rule="nonzero"/></clipPath></defs><g clip-path="url(#e225254942)"><path fill="#c4c7c8" d="M 8.867188 4.972656 C 4.007812 5.027344 0.109375 9.011719 0.164062 13.871094 C 0.21875 18.730469 4.203125 22.628906 9.0625 22.574219 C 10.855469 22.554688 12.601562 21.984375 14.066406 20.945312 L 19.09375 25.972656 C 19.667969 26.539062 20.597656 26.535156 21.164062 25.957031 C 21.726562 25.386719 21.726562 24.46875 21.164062 23.898438 L 16.136719 18.875 C 18.957031 14.914062 18.027344 9.417969 14.066406 6.601562 C 12.550781 5.523438 10.730469 4.953125 8.867188 4.972656 Z M 8.761719 6.496094 C 12.777344 6.382812 16.121094 9.546875 16.234375 13.5625 C 16.234375 13.632812 16.238281 13.703125 16.238281 13.773438 C 16.238281 17.789062 12.984375 21.042969 8.96875 21.046875 C 4.953125 21.046875 1.695312 17.792969 1.695312 13.777344 C 1.695312 13.777344 1.695312 13.773438 1.695312 13.773438 C 1.691406 9.832031 4.824219 6.605469 8.761719 6.496094 Z M 8.761719 6.496094 " fill-opacity="1" fill-rule="nonzero"/></g><path fill="#c4c7c8" d="M 7.003906 8.378906 C 7.402344 8.238281 7.839844 8.445312 7.980469 8.84375 C 8.125 9.238281 7.921875 9.671875 7.527344 9.820312 C 5.863281 10.425781 4.757812 12.003906 4.757812 13.773438 C 4.757812 14.195312 4.414062 14.539062 3.992188 14.539062 C 3.570312 14.539062 3.226562 14.195312 3.226562 13.773438 C 3.226562 11.359375 4.734375 9.207031 7.003906 8.378906 Z M 7.003906 8.378906 " fill-opacity="1" fill-rule="nonzero"/></svg>